<svg xmlns="http://www.w3.org/2000/svg" xmlns:xlink="http://www.w3.org/1999/xlink" width="461" height="337" viewBox="0 0 461 337">
  <defs>
    <linearGradient id="linear-gradient" x1="0.547" y1="0.036" x2="0.802" y2="0.938" gradientUnits="objectBoundingBox">
      <stop offset="0" stop-color="#00a9b9"/>
      <stop offset="1" stop-color="#073d94"/>
    </linearGradient>
    <linearGradient id="linear-gradient-3" x1="0.547" y1="0.036" x2="0.802" y2="0.938" gradientUnits="objectBoundingBox">
      <stop offset="0" stop-color="#06509b"/>
      <stop offset="1" stop-color="#073d94"/>
    </linearGradient>
  </defs>
  <g id="グループ_1666" data-name="グループ 1666" transform="translate(-915 -4951)">
    <g id="長方形_3020" data-name="長方形 3020" transform="translate(915 4951)" fill="#fff" stroke="#0f5093" stroke-width="3">
      <rect width="461" height="337" stroke="none"/>
      <rect x="1.5" y="1.5" width="458" height="334" fill="none"/>
    </g>
    <g id="グループ_1625" data-name="グループ 1625" transform="translate(-4528.681 -12169.875)">
      <text id="Revive" transform="translate(5668.35 17404.793)" fill="#163a5e" font-size="64" font-family="Helvetica" letter-spacing="0.07em"><tspan x="-109.012" y="0">Revive</tspan></text>
      <g id="グループ_1623" data-name="グループ 1623" transform="translate(5568.35 17162.98)" style="isolation: isolate">
        <path id="パス_1877" data-name="パス 1877" d="M203.874,150.989Q185.616,178.456,163,178.453a28.136,28.136,0,0,1-13.9-3.682,37.766,37.766,0,0,1-11.657-10.319,35.87,35.87,0,0,1-6.6-12.821l-4.635-19.851q-5.424-22.183-8.729-29.67t-10.615-8.546V90.673q12.051-1.97,20.809-14.456a45.974,45.974,0,0,0,8.759-26.938q0-18.656-14.01-30.355T86.167,7.229a77.3,77.3,0,0,0-50.546,18.2q-22.107,18.2-22.105,43.956,0,13.67,7.041,22.208t17.457,8.542q11.264,0,19.008-9.2l2.958,2.1q-10,18.922-30.273,18.924-13.377,0-21.542-8.936T0,78.846Q0,48.36,27.667,24.182T94.9,0q27.034,0,42.592,11.567t15.556,31.8a49.376,49.376,0,0,1-9.959,29.7,49.615,49.615,0,0,1-26.506,18.66q6.165,2.106,12.191,8.481t7.849,11.634l6.517,19.306q7.871,23.92,12.3,30.751t14.691,6.833q13.916,0,29.38-21.027Z" transform="translate(0 0)" fill="url(#linear-gradient)"/>
      </g>
      <g id="グループ_1624" data-name="グループ 1624" transform="translate(5562.965 17162.98)" style="isolation: isolate">
        <path id="パス_1877-2" data-name="パス 1877" d="M209.315,149.937c-12.172,18.311-31.239,28.516-46.312,28.516a28.136,28.136,0,0,1-13.9-3.682,37.766,37.766,0,0,1-11.657-10.319,35.87,35.87,0,0,1-6.6-12.821l-4.635-19.851q-5.424-22.183-8.729-29.67t-10.615-8.546V90.673q12.051-1.97,20.809-14.456a45.974,45.974,0,0,0,8.759-26.938q0-18.656-14.01-30.355T86.167,7.229a77.3,77.3,0,0,0-50.546,18.2q-22.107,18.2-22.105,43.956,0,13.67,7.041,22.208t17.457,8.542c7.509,0,28.86-9.946,34.023-16.078L65.02,95.49c-6.667,12.615-21.8,16.471-35.314,16.471q-13.377,0-21.542-8.936T0,78.846Q0,48.36,27.667,24.182T94.9,0q27.034,0,42.592,11.567t15.556,31.8a49.376,49.376,0,0,1-9.959,29.7,49.615,49.615,0,0,1-26.506,18.66q6.165,2.106,12.191,8.481t7.849,11.634l6.517,19.306c5.248,15.946,10.325,27.509,13.278,32.063s11.3,4.458,18.144,4.458c9.277,0,26.049-13.907,36.357-27.925Z" transform="translate(0 0)" fill="url(#linear-gradient)"/>
      </g>
      <ellipse id="楕円形_21" data-name="楕円形 21" cx="18.866" cy="18.866" rx="18.866" ry="18.866" transform="translate(5582.685 17306.061)" fill="url(#linear-gradient-3)"/>
    </g>
  </g>
</svg>
