<svg xmlns="http://www.w3.org/2000/svg" width="196.688" height="56.679" viewBox="0 0 196.688 56.679">
  <g id="グループ_1600" data-name="グループ 1600" transform="translate(-11188.965 -10090.98)">
    <text id="Revive" transform="translate(11323.652 10130.95)" fill="#fff" font-size="36" font-family="Helvetica" letter-spacing="0.07em"><tspan x="-61.32" y="0">Revive</tspan></text>
    <g id="グループ_1598" data-name="グループ 1598" transform="translate(11190.652 10090.98)" style="isolation: isolate">
      <path id="パス_1877" data-name="パス 1877" d="M63.908,47.33Q58.184,55.94,51.1,55.939a8.82,8.82,0,0,1-4.359-1.154,11.838,11.838,0,0,1-3.654-3.235,11.244,11.244,0,0,1-2.069-4.019l-1.453-6.223a66.99,66.99,0,0,0-2.736-9.3A4.162,4.162,0,0,0,33.5,29.329v-.906a9.943,9.943,0,0,0,6.523-4.531,14.411,14.411,0,0,0,2.746-8.444,11.815,11.815,0,0,0-4.392-9.515Q33.983,2.266,27.011,2.266a24.229,24.229,0,0,0-15.845,5.7Q4.236,13.677,4.237,21.75a10.585,10.585,0,0,0,2.207,6.962,6.821,6.821,0,0,0,5.472,2.678,7.5,7.5,0,0,0,5.958-2.883l.927.659Q15.667,35.1,9.312,35.1a8.712,8.712,0,0,1-6.753-2.8A10.806,10.806,0,0,1,0,24.716Q0,15.159,8.673,7.58A30.912,30.912,0,0,1,29.747,0Q38.221,0,43.1,3.626a11.74,11.74,0,0,1,4.876,9.968,15.478,15.478,0,0,1-3.122,9.31,15.553,15.553,0,0,1-8.309,5.849,9.725,9.725,0,0,1,3.821,2.659,10.749,10.749,0,0,1,2.46,3.647l2.043,6.052q2.467,7.5,3.856,9.639a5.068,5.068,0,0,0,4.605,2.142q4.362,0,9.21-6.591Z" transform="translate(0 0)" fill="#fff"/>
    </g>
    <g id="グループ_1599" data-name="グループ 1599" transform="translate(11188.965 10090.98)" style="isolation: isolate">
      <path id="パス_1877-2" data-name="パス 1877" d="M65.613,47C61.8,52.74,55.821,55.939,51.1,55.939a8.82,8.82,0,0,1-4.359-1.154,11.838,11.838,0,0,1-3.654-3.235,11.244,11.244,0,0,1-2.069-4.019l-1.453-6.223a66.99,66.99,0,0,0-2.736-9.3A4.162,4.162,0,0,0,33.5,29.329v-.906a9.943,9.943,0,0,0,6.523-4.531,14.411,14.411,0,0,0,2.746-8.444,11.815,11.815,0,0,0-4.392-9.515Q33.983,2.266,27.011,2.266a24.229,24.229,0,0,0-15.845,5.7Q4.236,13.677,4.237,21.75a10.585,10.585,0,0,0,2.207,6.962,6.821,6.821,0,0,0,5.472,2.678c2.354,0,9.047-3.118,10.665-5.04l-2.2,3.584C18.292,33.887,13.55,35.1,9.312,35.1a8.712,8.712,0,0,1-6.753-2.8A10.806,10.806,0,0,1,0,24.716Q0,15.159,8.673,7.58A30.912,30.912,0,0,1,29.747,0Q38.221,0,43.1,3.626a11.74,11.74,0,0,1,4.876,9.968,15.478,15.478,0,0,1-3.122,9.31,15.553,15.553,0,0,1-8.309,5.849,9.725,9.725,0,0,1,3.821,2.659,10.749,10.749,0,0,1,2.46,3.647l2.043,6.052A52.967,52.967,0,0,0,49.03,51.16c.925,1.428,3.543,1.4,5.687,1.4,2.908,0,8.165-4.359,11.4-8.754Z" transform="translate(0 0)" fill="#fff"/>
    </g>
    <ellipse id="楕円形_16" data-name="楕円形 16" cx="5.914" cy="5.914" rx="5.914" ry="5.914" transform="translate(11195.146 10135.832)" fill="#fff"/>
  </g>
</svg>
