<svg xmlns="http://www.w3.org/2000/svg" xmlns:xlink="http://www.w3.org/1999/xlink" width="72.079" height="21.836" viewBox="0 0 72.079 21.836">
  <defs>
    <linearGradient id="linear-gradient" x1="0.547" y1="0.036" x2="0.802" y2="0.938" gradientUnits="objectBoundingBox">
      <stop offset="0" stop-color="#00a9b9"/>
      <stop offset="1" stop-color="#073d94"/>
    </linearGradient>
    <linearGradient id="linear-gradient-2" x1="0.547" y1="0.036" x2="0.802" y2="0.938" gradientUnits="objectBoundingBox">
      <stop offset="0" stop-color="#06509b"/>
      <stop offset="1" stop-color="#073d94"/>
    </linearGradient>
  </defs>
  <g id="グループ_1605" data-name="グループ 1605" transform="translate(-468.006 2173.918)">
    <text id="Revive" transform="translate(517.085 -2158.5)" fill="#163a5e" font-size="13" font-family="Helvetica" letter-spacing="0.07em"><tspan x="-22.143" y="0">Revive</tspan></text>
    <g id="グループ_1604" data-name="グループ 1604" transform="translate(-21.85 17.304)">
      <g id="グループ_1603" data-name="グループ 1603" transform="translate(489.146 -2191.222)" style="isolation: isolate">
        <path id="パス_1877" data-name="パス 1877" d="M25.315,18.107a7.3,7.3,0,0,1-5.6,3.444,3.407,3.407,0,0,1-1.682-.445,4.565,4.565,0,0,1-1.41-1.246,4.33,4.33,0,0,1-.8-1.548l-.561-2.4a25.78,25.78,0,0,0-1.056-3.583A1.605,1.605,0,0,0,12.924,11.3V10.95A3.836,3.836,0,0,0,15.441,9.2,5.547,5.547,0,0,0,16.5,5.951a4.549,4.549,0,0,0-1.694-3.666A6.619,6.619,0,0,0,10.421.873a9.356,9.356,0,0,0-6.113,2.2A6.656,6.656,0,0,0,1.635,8.379a4.074,4.074,0,0,0,.852,2.682A2.633,2.633,0,0,0,4.6,12.093a8.874,8.874,0,0,0,4.115-1.942l-.849,1.381c-.806,1.523-2.636,1.989-4.271,1.989A3.364,3.364,0,0,1,.987,12.442,4.159,4.159,0,0,1,0,9.522a8.62,8.62,0,0,1,3.346-6.6A11.937,11.937,0,0,1,11.477,0a8.471,8.471,0,0,1,5.151,1.4,4.521,4.521,0,0,1,1.881,3.84,5.957,5.957,0,0,1-1.2,3.587A6,6,0,0,1,14.1,11.077,3.752,3.752,0,0,1,15.574,12.1a4.141,4.141,0,0,1,.949,1.4l.788,2.331a20.39,20.39,0,0,0,1.606,3.872c.357.55,1.367.538,2.194.538,1.122,0,3.15-1.679,4.4-3.372Z" transform="translate(0.71 0)" fill="url(#linear-gradient)"/>
      </g>
      <ellipse id="楕円形_17" data-name="楕円形 17" cx="2.278" cy="2.278" rx="2.278" ry="2.278" transform="translate(491.528 -2173.943)" fill="url(#linear-gradient-2)"/>
    </g>
  </g>
</svg>
