<svg xmlns="http://www.w3.org/2000/svg" xmlns:xlink="http://www.w3.org/1999/xlink" width="372" height="438.031" viewBox="0 0 372 438.031">
  <defs>
    <linearGradient id="linear-gradient" x1="0.547" y1="0.036" x2="0.802" y2="0.938" gradientUnits="objectBoundingBox">
      <stop offset="0" stop-color="#00a9b9"/>
      <stop offset="1" stop-color="#073d94"/>
    </linearGradient>
    <linearGradient id="linear-gradient-3" x1="0.547" y1="0.036" x2="0.802" y2="0.938" gradientUnits="objectBoundingBox">
      <stop offset="0" stop-color="#06509b"/>
      <stop offset="1" stop-color="#073d94"/>
    </linearGradient>
  </defs>
  <g id="グループ_1622" data-name="グループ 1622" transform="translate(1979.831 -6064.98)" opacity="0.57">
    <g id="グループ_1621" data-name="グループ 1621" transform="translate(-1974.035 6064.98)">
      <g id="グループ_1620" data-name="グループ 1620" transform="translate(0 0)">
        <g id="グループ_1619" data-name="グループ 1619">
          <text id="Revive" transform="translate(180.204 413.031)" fill="#163a5e" font-size="109" font-family="Helvetica" letter-spacing="0.07em"><tspan x="-185.662" y="0">Revive</tspan></text>
          <g id="グループ_1595" data-name="グループ 1595" transform="translate(9.204 0)" style="isolation: isolate">
            <path id="パス_1877" data-name="パス 1877" d="M348.445,258.058Q317.24,305,278.592,305a48.087,48.087,0,0,1-23.765-6.294A64.547,64.547,0,0,1,234.9,281.069q-8.644-11.349-11.28-21.913L215.7,225.227q-9.271-37.913-14.919-50.709t-18.142-14.607v-4.941q20.6-3.367,35.566-24.707t14.969-46.041q0-31.885-23.944-51.88T147.27,12.355q-48.612,0-86.39,31.1T23.1,118.586q0,23.364,12.034,37.957t29.836,14.6q19.252,0,32.487-15.721l5.056,3.591q-17.093,32.34-51.74,32.343-22.864,0-36.818-15.273T0,134.757q0-52.1,47.285-93.428T162.189,0q46.2,0,72.795,19.769t26.588,54.347q0,27.407-17.021,50.759t-45.3,31.892q10.536,3.6,20.835,14.5T233.5,191.148l11.138,33q13.453,40.881,21.025,52.557t25.108,11.678q23.783,0,50.213-35.938Z" transform="translate(0 0)" fill="url(#linear-gradient)"/>
          </g>
          <g id="グループ_1597" data-name="グループ 1597" transform="translate(0 0)" style="isolation: isolate">
            <path id="パス_1877-2" data-name="パス 1877" d="M357.745,256.261c-20.8,31.3-53.391,48.737-79.153,48.737a48.087,48.087,0,0,1-23.765-6.294A64.547,64.547,0,0,1,234.9,281.069q-8.644-11.349-11.28-21.913L215.7,225.227q-9.271-37.913-14.919-50.709t-18.142-14.607v-4.941q20.6-3.367,35.566-24.707t14.969-46.041q0-31.885-23.944-51.88T147.27,12.355q-48.612,0-86.39,31.1T23.1,118.586q0,23.364,12.034,37.957t29.836,14.6c12.834,0,49.325-17,58.15-27.48L111.128,163.2c-11.4,21.56-37.251,28.151-60.355,28.151q-22.864,0-36.818-15.273T0,134.757q0-52.1,47.285-93.428T162.189,0q46.2,0,72.795,19.769t26.588,54.347q0,27.407-17.021,50.759t-45.3,31.892q10.536,3.6,20.835,14.5T233.5,191.148l11.138,33c8.969,27.254,17.647,47.016,22.693,54.8s19.315,7.619,31.01,7.619c15.856,0,44.52-23.768,62.138-47.728Z" transform="translate(0 0)" fill="url(#linear-gradient)"/>
          </g>
          <ellipse id="楕円形_14" data-name="楕円形 14" cx="32.244" cy="32.244" rx="32.244" ry="32.244" transform="translate(33.704 244.541)" fill="url(#linear-gradient-3)"/>
        </g>
      </g>
    </g>
  </g>
</svg>
