<?xml version="1.0" standalone="no"?>
<!DOCTYPE svg PUBLIC "-//W3C//DTD SVG 20010904//EN"
 "http://www.w3.org/TR/2001/REC-SVG-20010904/DTD/svg10.dtd">
<svg version="1.0" xmlns="http://www.w3.org/2000/svg"
 width="720.000000pt" height="720.000000pt" viewBox="0 0 720.000000 720.000000"
 preserveAspectRatio="xMidYMid meet">
<metadata>
Created by potrace 1.14, written by Peter Selinger 2001-2017
</metadata>
<g transform="translate(0.000000,720.000000) scale(0.100000,-0.100000)"
fill="#000000" stroke="none">
<path d="M2988 6675 c-1 -2 -43 -6 -93 -10 -49 -3 -101 -8 -115 -10 -75 -12
-94 -16 -103 -22 -6 -3 -7 -1 -3 5 5 9 0 9 -21 1 -15 -6 -29 -10 -31 -9 -1 1
-21 -2 -45 -6 -23 -4 -49 -8 -57 -9 -8 -1 -28 -5 -45 -8 -16 -4 -41 -10 -55
-13 -14 -3 -34 -7 -45 -9 -11 -2 -20 -4 -20 -5 0 -1 -11 -4 -25 -6 -33 -6
-230 -63 -255 -74 -11 -5 -38 -14 -60 -21 -130 -38 -560 -242 -573 -271 -2 -5
-8 -8 -14 -8 -10 0 -145 -89 -243 -159 -44 -31 -175 -136 -230 -183 -54 -47
-298 -291 -348 -349 -74 -84 -195 -247 -202 -270 -4 -11 -11 -19 -16 -19 -5 0
-13 -8 -16 -17 -4 -10 -22 -41 -40 -69 -33 -53 -128 -238 -158 -309 -23 -56
-74 -203 -85 -247 -29 -114 -28 -109 -45 -203 -3 -16 -8 -37 -10 -45 -29 -108
-26 -548 5 -655 5 -16 11 -43 13 -60 3 -16 18 -67 35 -112 130 -354 413 -586
772 -633 46 -6 374 -4 415 3 22 4 63 9 90 13 106 13 250 52 350 95 17 7 32 13
35 13 18 5 125 64 180 101 126 84 209 180 327 376 18 30 69 112 113 183 44 71
79 130 77 132 -1 2 -21 -13 -42 -33 -33 -30 -117 -87 -250 -170 -27 -17 -294
-153 -300 -153 -3 -1 -26 -10 -52 -21 -27 -12 -66 -28 -88 -36 -22 -8 -49 -19
-60 -23 -51 -22 -177 -60 -240 -73 -69 -14 -203 -15 -243 -3 -21 7 -46 13 -92
22 -47 9 -172 76 -228 122 -127 103 -234 245 -293 393 -30 76 -63 206 -76 299
-9 67 -9 355 0 430 38 306 158 607 344 858 146 197 376 415 593 560 47 31 91
63 98 70 7 6 19 12 27 12 7 0 15 4 17 9 4 10 91 59 208 116 170 84 363 155
520 190 120 28 224 48 260 51 25 2 56 6 70 9 83 16 422 23 537 11 83 -9 206
-26 234 -31 13 -3 39 -8 58 -11 19 -3 44 -9 55 -14 12 -4 24 -8 29 -9 4 0 8
-1 10 -2 1 0 9 -2 17 -4 55 -12 198 -64 270 -97 78 -37 249 -138 276 -163 6
-5 29 -23 50 -40 60 -45 205 -193 250 -255 117 -159 195 -335 229 -515 33
-174 25 -525 -14 -627 -5 -14 -7 -28 -4 -31 3 -3 1 -12 -3 -19 -5 -7 -10 -21
-11 -31 -9 -55 -128 -334 -153 -357 -3 -3 -14 -21 -24 -40 -24 -44 -120 -180
-156 -220 -64 -71 -89 -98 -136 -139 -55 -49 -158 -121 -173 -121 -5 0 -11 -4
-13 -8 -1 -4 -37 -22 -78 -39 -86 -37 -113 -45 -174 -58 -43 -9 -45 -12 -44
-60 1 -44 1 -45 42 -55 168 -41 288 -171 364 -395 6 -16 13 -39 18 -50 4 -11
8 -24 9 -30 2 -5 13 -39 25 -75 12 -36 23 -72 25 -80 10 -45 59 -210 71 -242
7 -21 12 -38 9 -38 -2 0 0 -11 5 -25 5 -14 12 -36 14 -48 12 -55 16 -72 25
-101 6 -17 13 -42 15 -56 3 -14 12 -54 21 -90 9 -36 18 -73 21 -83 2 -9 6 -25
8 -35 6 -23 35 -150 42 -182 3 -14 14 -61 25 -105 18 -74 23 -96 34 -150 18
-84 59 -239 76 -284 65 -175 200 -375 353 -518 36 -35 68 -63 71 -63 3 0 15
-9 28 -20 75 -66 277 -169 359 -184 13 -3 23 -5 23 -6 0 -1 32 -8 70 -15 99
-19 373 -9 435 15 3 1 8 2 12 1 4 0 19 4 33 9 14 5 36 12 48 14 52 10 190 62
292 112 104 50 204 103 215 114 14 14 70 50 79 50 5 0 11 3 13 8 2 4 37 32 78
63 155 116 307 267 430 429 36 47 68 87 71 90 14 11 39 70 43 102 4 28 28 187
41 265 2 13 -1 23 -6 23 -5 0 -9 -4 -9 -9 0 -8 -29 -47 -98 -130 -140 -169
-342 -367 -502 -494 -47 -37 -90 -72 -97 -77 -7 -6 -16 -10 -22 -10 -5 0 -11
-3 -13 -8 -1 -4 -28 -23 -58 -42 -30 -19 -64 -41 -75 -48 -84 -53 -291 -130
-320 -118 -8 3 -15 2 -15 -2 0 -7 -20 -7 -225 2 -116 4 -231 22 -252 39 -7 5
-13 7 -13 3 0 -14 -97 48 -128 82 -26 28 -148 261 -193 367 -4 11 -17 40 -27
65 -23 53 -92 228 -92 234 0 2 -8 21 -17 42 -9 22 -18 44 -19 49 -1 6 -24 69
-49 140 -26 72 -48 135 -49 140 -1 6 -4 15 -7 20 -6 10 -18 54 -18 68 0 4 -8
21 -16 37 -8 16 -15 32 -15 35 0 3 0 6 0 8 -1 1 -23 67 -50 147 -28 80 -52
153 -54 163 -19 73 -113 324 -143 377 -65 117 -198 275 -334 395 -65 58 -198
142 -263 165 -29 11 -26 12 65 44 94 33 260 111 311 147 14 11 29 19 32 19 10
0 60 36 146 105 204 163 370 374 492 625 63 130 131 339 143 442 2 18 7 60 11
93 15 109 8 380 -12 465 -3 14 -8 35 -10 46 -12 62 -57 198 -88 264 -35 75
-76 151 -87 160 -3 3 -21 27 -39 55 -55 81 -230 250 -302 293 -16 9 -28 20
-28 24 0 4 -7 8 -15 8 -8 0 -15 5 -15 10 0 6 -5 10 -11 10 -6 0 -23 9 -38 19
-31 23 -246 131 -270 136 -9 3 -47 16 -86 30 -70 26 -269 79 -335 89 -19 3
-46 8 -60 11 -24 5 -45 8 -150 21 -25 3 -63 8 -85 11 -45 6 -591 13 -597 8z"/>
<path d="M1182 1780 c-76 -18 -200 -74 -242 -110 -131 -108 -215 -242 -247
-392 -12 -59 -7 -221 10 -284 56 -214 207 -376 422 -450 70 -24 95 -28 195
-28 63 0 129 4 145 8 83 20 178 64 245 114 40 30 140 132 140 143 0 4 6 14 13
21 23 24 68 129 86 199 18 72 21 215 6 289 -48 238 -255 441 -505 497 -56 13
-203 9 -268 -7z"/>
</g>
</svg>
