<svg xmlns="http://www.w3.org/2000/svg" xmlns:xlink="http://www.w3.org/1999/xlink" width="2184.229" height="2282.234" viewBox="0 0 2184.229 2282.234">
  <defs>
    <linearGradient id="linear-gradient" x1="0.027" y1="0.5" x2="0.98" y2="0.474" gradientUnits="objectBoundingBox">
      <stop offset="0" stop-color="#0f5093"/>
      <stop offset="1" stop-color="#409fe1"/>
    </linearGradient>
    <linearGradient id="linear-gradient-3" x1="0.027" x2="0.98" y2="0.526" xlink:href="#linear-gradient"/>
  </defs>
  <g id="グループ_1677" data-name="グループ 1677" transform="translate(132.114 -991.958)">
    <g id="グループ_1637" data-name="グループ 1637" transform="translate(-11207.885 -14775.6)">
      <g id="グループ_1636" data-name="グループ 1636">
        <g id="グループ_1634" data-name="グループ 1634" transform="translate(12981.813 17114.445) rotate(-150)" opacity="0.23">
          <path id="パス_1782" data-name="パス 1782" d="M145.4,548.543,991.807,342.259,1304.042-20.047-4.521,288.874Z" transform="translate(0 0)" opacity="0.31" fill="url(#linear-gradient)"/>
        </g>
        <g id="グループ_1635" data-name="グループ 1635" transform="translate(11325.773 15783.911) rotate(30)" opacity="0.23">
          <path id="パス_1782-2" data-name="パス 1782" d="M140.988,493.427,780.259,340.309l305.488-357L-3.8,242.652Z" transform="translate(0 0)" opacity="0.31" fill="url(#linear-gradient)"/>
        </g>
      </g>
    </g>
    <g id="グループ_1641" data-name="グループ 1641" transform="translate(-132.114 1907.684)">
      <g id="グループ_1636-2" data-name="グループ 1636" transform="translate(0 0)">
        <g id="グループ_1634-2" data-name="グループ 1634" transform="translate(0 874.095) rotate(-30)" opacity="0.23">
          <path id="パス_1782-3" data-name="パス 1782" d="M149.92,0,996.328,206.285,1308.563,568.59,0,259.669Z" transform="translate(0 0)" opacity="0.31" fill="url(#linear-gradient-3)"/>
        </g>
        <g id="グループ_1635-2" data-name="グループ 1635" transform="translate(2184.229 441.775) rotate(150)" opacity="0.23">
          <path id="パス_1782-4" data-name="パス 1782" d="M144.785,0,784.056,153.118l305.488,357L0,250.776Z" transform="translate(0)" opacity="0.31" fill="url(#linear-gradient-3)"/>
        </g>
      </g>
    </g>
  </g>
</svg>
